<?xml version="1.0" encoding="utf-8"?>
<svg viewBox="0 0 5333.3335 5333.3335" xmlns="http://www.w3.org/2000/svg">
  <g transform="matrix(1.333333, 0, 0, -1.333333, 0, 5333.333496)" id="g10">
    <g transform="scale(0.1)" id="g12">
      <g transform="scale(2.37479)" id="g18">
        <path id="path20" style="fill:#a5c3ce;fill-opacity:1;fill-rule:nonzero;stroke:none" d="M 16257.9,5226.77 H 1223.4 c -23.26,0 -42.11,18.87 -42.11,42.11 0,23.29 18.85,42.11 42.11,42.11 h 15034.5 c 23.3,0 42.1,-18.82 42.1,-42.11 0,-23.24 -18.8,-42.11 -42.1,-42.11"/>
      </g>
      <g transform="scale(2.25561)" id="g22">
        <path id="path24" style="fill:#a5c3ce;fill-opacity:1;fill-rule:nonzero;stroke:none" d="m 16255.7,5032.69 h -3942.9 c -24.5,0 -44.3,19.82 -44.3,44.33 0,24.47 19.8,44.34 44.3,44.34 h 3942.9 c 24.4,0 44.3,-19.87 44.3,-44.34 0,-24.51 -19.9,-44.33 -44.3,-44.33"/>
      </g>
      <g transform="scale(1.49731)" id="g26">
        <path id="path28" style="fill:#a5c3ce;fill-opacity:1;fill-rule:nonzero;stroke:none" d="m 16233.2,7581.45 h -5975 c -36.8,0 -66.7,29.85 -66.7,66.78 0,36.87 29.9,66.79 66.7,66.79 h 5975 c 36.9,0 66.8,-29.92 66.8,-66.79 0,-36.93 -29.9,-66.78 -66.8,-66.78"/>
      </g>
      <path id="path30" style="fill:#a5c3ce;fill-opacity:1;fill-rule:nonzero;stroke:none" d="M 13092.6,11351.8 H 4847.97 c -55.22,0 -100,44.7 -100,100 0,55.2 44.78,100 100,100 h 8244.63 c 55.2,0 100,-44.8 100,-100 0,-55.3 -44.8,-100 -100,-100"/>
      <g transform="scale(1.85967)" id="g32">
        <path id="path34" style="fill:#a5c3ce;fill-opacity:1;fill-rule:nonzero;stroke:none" d="m 16246.2,5513.33 h -4807 c -29.7,0 -53.8,24.09 -53.8,53.77 0,29.74 24.1,53.78 53.8,53.78 h 4807 c 29.8,0 53.8,-24.04 53.8,-53.78 0,-29.68 -24,-53.77 -53.8,-53.77"/>
      </g>
      <g transform="scale(1.01897)" id="g36">
        <path id="path38" style="fill:#a5c3ce;fill-opacity:1;fill-rule:nonzero;stroke:none" d="m 16201.9,10062.1 h -4904 c -54.2,0 -98.2,44 -98.2,98.2 0,54.2 44,98.1 98.2,98.1 h 4904 c 54.1,0 98.1,-43.9 98.1,-98.1 0,-54.2 -44,-98.2 -98.1,-98.2"/>
      </g>
      <g transform="scale(1.76528)" id="g40">
        <path id="path42" style="fill:#1d5177;fill-opacity:1;fill-rule:nonzero;stroke:none" d="M 16300,9209.18 H 6766.4 V 11590.7 H 16300 V 9209.18"/>
      </g>
      <g transform="scale(1.77121)" id="g44">
        <path id="path46" style="fill:#2b79b2;fill-opacity:1;fill-rule:nonzero;stroke:none" d="M 16300,9208.63 V 8160.3 c 0,-49.34 -14.7,-95.24 -40,-133.58 -43.4,-65.83 -118.1,-109.3 -202.9,-109.3 H 6986.64 c -120.37,0 -220.3,87.57 -239.5,202.46 -2.25,13.15 -3.38,26.65 -3.38,40.42 v 1048.33 c 0,11.57 1.18,22.86 3.38,33.76 15.64,76.27 83.17,133.64 164.07,133.64 h 9221.29 c 43.6,0 83.2,-16.6 113,-43.82 33.5,-30.6 54.5,-74.63 54.5,-123.58"/>
      </g>
      <g transform="scale(1.85935)" id="g48">
        <path id="path50" style="fill:#286faf;fill-opacity:1;fill-rule:nonzero;stroke:none" d="M 16300,8110.69 V 7732.6 c 0,-151.83 -123.1,-274.94 -274.9,-274.94 h -274.8 c -121.7,0 -224.9,79.06 -261.1,188.56 -41.4,-62.71 -112.5,-104.12 -193.3,-104.12 H 6655.45 c -114.67,0 -209.86,83.41 -228.15,192.86 -0.48,-151.45 -123.38,-274.07 -274.94,-274.07 h -274.77 c -151.83,0 -274.88,123.11 -274.88,274.93 v 71.26 c 265.04,283.44 565.41,295.59 976.53,354.64 1.07,0.17 674.64,74.92 1179.12,15.12 1678.65,-198.94 3018.14,-230.68 3995.84,-142.79 977.7,87.87 2636.4,196.89 3086.8,208.29 247.9,6.3 439.2,35.45 634.4,44.05 17.2,0.76 34.5,1.35 51.9,1.72 143.1,3.39 291,-6.29 467.2,-45.77 112.7,-25.27 215.3,-73.68 305.5,-131.65"/>
      </g>
      <g transform="scale(2.29628)" id="g52">
        <path id="path54" style="fill:#c7e9f2;fill-opacity:1;fill-rule:nonzero;stroke:none" d="m 15439.4,9628.59 860.6,-4136 h -3856 l 675.8,4136 h 2319.6"/>
      </g>
      <g transform="scale(2.01963)" id="g56">
        <path id="path58" style="fill:#bab195;fill-opacity:1;fill-rule:nonzero;stroke:none" d="m 16300,6332.16 h -128.7 V 12159.3 H 16300 V 6332.16"/>
      </g>
      <g transform="scale(2.17504)" id="g60">
        <path id="path62" style="fill:#ead478;fill-opacity:1;fill-rule:nonzero;stroke:none" d="m 14267.4,12032.9 h 1616.3 l 416.3,-1867.6 h -2448.9 l 416.3,1867.6"/>
      </g>
      <g transform="scale(2.11801)" id="g64">
        <path id="path66" style="fill:#bab195;fill-opacity:1;fill-rule:nonzero;stroke:none" d="m 16253,5954.09 h -1543 c -25.9,0 -47,21.15 -47,47.03 v 25.92 c 0,25.87 21.1,47.02 47,47.02 h 1543 c 25.8,0 47,-21.15 47,-47.02 v -25.92 c 0,-25.88 -21.2,-47.03 -47,-47.03"/>
      </g>
      <g transform="scale(1.84528)" id="g68">
        <path id="path70" style="fill:#ceb176;fill-opacity:1;fill-rule:nonzero;stroke:none" d="m 16136.4,6834.1 h -255.1 l -163.6,974.87 h 582.3 l -163.6,-974.87"/>
      </g>
      <g transform="scale(1.85935)" id="g72">
        <path id="path74" style="fill:#2c7cb7;fill-opacity:1;fill-rule:nonzero;stroke:none" d="M 16300,9955.25 V 7732.6 c 0,-151.83 -123.1,-274.94 -274.9,-274.94 h -274.8 c -121.7,0 -224.9,79.06 -261.1,188.56 -9,27.16 -13.8,56.2 -13.8,86.38 v 2222.65 c 0,29.69 4.7,58.35 13.4,85.05 35.8,110.2 139.4,189.9 261.5,189.9 h 274.8 c 151.8,0 274.9,-123.1 274.9,-274.95"/>
      </g>
      <g transform="scale(1.85935)" id="g76">
        <path id="path78" style="fill:#4e8eb5;fill-opacity:1;fill-rule:nonzero;stroke:none" d="m 15931.4,10230.2 h 93.7 c 151.8,0 274.9,-123.1 274.9,-274.95 V 7732.6 c 0,-151.83 -123.1,-274.94 -274.9,-274.94 h -274.8 c -108.4,0 -202.1,62.71 -246.8,153.82 l 427.9,2618.72"/>
      </g>
      <g transform="scale(1.30251)" id="g80">
        <path id="path82" style="fill:#286faf;fill-opacity:1;fill-rule:nonzero;stroke:none" d="m 9143.74,15810.8 v -2571.7 c 0,-270.1 219.03,-489.2 489.13,-489.2 h 5491.43 c 270.1,0 489.2,219.1 489.2,489.2 v 2571.7 c 0,49.7 -7.5,97.6 -21.2,142.8 -55.3,181.4 -213.2,318.1 -406.1,342.5 -20.2,2.6 -41,3.9 -61.9,3.9 H 9632.87 c -17.74,0 -35.24,-0.9 -52.44,-2.8 -230.78,-24.6 -413.66,-209.8 -434.62,-441.7 -1.38,-14.7 -2.07,-29.6 -2.07,-44.7"/>
      </g>
      <g transform="scale(1.30251)" id="g84">
        <path id="path86" style="fill:#246493;fill-opacity:1;fill-rule:nonzero;stroke:none" d="m 13820.6,12749.9 h -38.4 V 16300 h 38.4 v -3550.1"/>
      </g>
      <g transform="scale(1.30251)" id="g88">
        <path id="path90" style="fill:#246493;fill-opacity:1;fill-rule:nonzero;stroke:none" d="m 11160.5,12749.9 h -38.4 V 16300 h 38.4 v -3550.1"/>
      </g>
      <g transform="scale(1.24765)" id="g92">
        <path id="path94" style="fill:#246493;fill-opacity:1;fill-rule:nonzero;stroke:none" d="M 16300,15913.7 H 9540.97 v 40 H 16300 v -40"/>
      </g>
      <g transform="scale(1.24765)" id="g96">
        <path id="path98" style="fill:#246493;fill-opacity:1;fill-rule:nonzero;stroke:none" d="M 16300,14365.5 H 9540.97 v 40.1 H 16300 v -40.1"/>
      </g>
      <g transform="scale(1.11026)" id="g100">
        <path id="path102" style="fill:#205b7f;fill-opacity:1;fill-rule:nonzero;stroke:none" d="m 16300,16170.2 c 0,60 -48.6,108.7 -108.7,108.7 -60.1,0 -108.7,-48.7 -108.7,-108.7 0,-60.1 48.6,-108.8 108.7,-108.8 60.1,0 108.7,48.7 108.7,108.8"/>
      </g>
      <g transform="scale(1.22696)" id="g104">
        <path id="path106" style="fill:#205b7f;fill-opacity:1;fill-rule:nonzero;stroke:none" d="m 14744.8,16201.6 c 0,54.4 -44.1,98.4 -98.4,98.4 -54.4,0 -98.5,-44 -98.5,-98.4 0,-54.3 44.1,-98.3 98.5,-98.3 54.3,0 98.4,44 98.4,98.3"/>
      </g>
      <g transform="scale(1.22696)" id="g108">
        <path id="path110" style="fill:#205b7f;fill-opacity:1;fill-rule:nonzero;stroke:none" d="m 11920.8,16201.6 c 0,54.4 -44.1,98.4 -98.5,98.4 -54.2,0 -98.3,-44 -98.3,-98.4 0,-54.3 44.1,-98.3 98.3,-98.3 54.4,0 98.5,44 98.5,98.3"/>
      </g>
      <g transform="scale(1.10845)" id="g112">
        <path id="path114" style="fill:#205b7f;fill-opacity:1;fill-rule:nonzero;stroke:none" d="m 13195.2,16191 c 0,60.2 -48.8,109 -109,109 -60,0 -108.8,-48.8 -108.8,-109 0,-60.1 48.8,-108.9 108.8,-108.9 60.2,0 109,48.8 109,108.9"/>
      </g>
      <g transform="scale(1.30251)" id="g116">
        <path id="path118" style="fill:#3882af;fill-opacity:1;fill-rule:nonzero;stroke:none" d="m 9143.74,15810.8 v -113.7 c 296.5,350.6 794.62,343.3 1419.16,379.1 488.7,28 3016.5,61.6 3559.4,30.3 703,-40.5 1292.6,-122.4 1491.2,-397.7 v 102 c 0,49.7 -7.5,97.6 -21.2,142.8 -55.3,181.4 -213.2,318.1 -406.1,342.5 -20.2,2.6 -41,3.9 -61.9,3.9 H 9632.87 c -17.74,0 -35.24,-0.9 -52.44,-2.8 -230.78,-24.6 -413.66,-209.8 -434.62,-441.7 -1.38,-14.7 -2.07,-29.6 -2.07,-44.7"/>
      </g>
      <g transform="scale(1.76772)" id="g120">
        <path id="path122" style="fill:#286faf;fill-opacity:1;fill-rule:nonzero;stroke:none" d="M 11532.9,11653.3 V 9758.48 c 0,-199.07 161.4,-360.46 360.4,-360.46 h 4046.2 c 199.1,0 360.5,161.39 360.5,360.46 v 1894.82 c 0,36.6 -5.5,72 -15.6,105.3 -40.7,133.6 -157.1,234.3 -299.2,252.3 -14.9,2 -30.2,2.9 -45.7,2.9 h -4046.2 c -13.1,0 -25.9,-0.7 -38.6,-2.1 -170.1,-18.1 -304.8,-154.5 -320.3,-325.4 -1,-10.8 -1.5,-21.8 -1.5,-33"/>
      </g>
      <g transform="scale(1.62446)" id="g124">
        <path id="path126" style="fill:#246493;fill-opacity:1;fill-rule:nonzero;stroke:none" d="m 16300,10226.8 h -30.8 v 2846.5 h 30.8 v -2846.5"/>
      </g>
      <g transform="scale(1.41189)" id="g128">
        <path id="path130" style="fill:#246493;fill-opacity:1;fill-rule:nonzero;stroke:none" d="m 16300,11766.6 h -35.4 v 3274.9 h 35.4 v -3274.9"/>
      </g>
      <g transform="scale(1.76773)" id="g132">
        <path id="path134" style="fill:#246493;fill-opacity:1;fill-rule:nonzero;stroke:none" d="m 16300,11235.3 h -4770.5 v 28.2 H 16300 v -28.2"/>
      </g>
      <g transform="scale(1.76773)" id="g136">
        <path id="path138" style="fill:#246493;fill-opacity:1;fill-rule:nonzero;stroke:none" d="m 16300,10142.5 h -4770.5 v 28.3 H 16300 v -28.3"/>
      </g>
      <g transform="scale(1.63033)" id="g140">
        <path id="path142" style="fill:#205b7f;fill-opacity:1;fill-rule:nonzero;stroke:none" d="m 16300,11015.7 c 0,40.9 -33.1,74.1 -74,74.1 -40.9,0 -74.1,-33.2 -74.1,-74.1 0,-40.9 33.2,-74.1 74.1,-74.1 40.9,0 74,33.2 74,74.1"/>
      </g>
      <g transform="scale(1.62996)" id="g144">
        <path id="path146" style="fill:#205b7f;fill-opacity:1;fill-rule:nonzero;stroke:none" d="m 16300,12199.6 c 0,40.9 -33.1,74.1 -74.1,74.1 -40.9,0 -74.1,-33.2 -74.1,-74.1 0,-40.9 33.2,-74.1 74.1,-74.1 41,0 74.1,33.2 74.1,74.1"/>
      </g>
      <g transform="scale(1.41739)" id="g148">
        <path id="path150" style="fill:#205b7f;fill-opacity:1;fill-rule:nonzero;stroke:none" d="m 16300,14029.2 c 0,47 -38.2,85.2 -85.2,85.2 -47,0 -85.2,-38.2 -85.2,-85.2 0,-47 38.2,-85.2 85.2,-85.2 47,0 85.2,38.2 85.2,85.2"/>
      </g>
      <g transform="scale(1.41739)" id="g152">
        <path id="path154" style="fill:#205b7f;fill-opacity:1;fill-rule:nonzero;stroke:none" d="m 16300,12666.4 c 0,47 -38.2,85.1 -85.2,85.1 -47,0 -85.2,-38.1 -85.2,-85.1 0,-47.1 38.2,-85.2 85.2,-85.2 47,0 85.2,38.1 85.2,85.2"/>
      </g>
      <g transform="scale(1.76772)" id="g156">
        <path id="path158" style="fill:#3882af;fill-opacity:1;fill-rule:nonzero;stroke:none" d="m 11532.9,11653.3 v -83.7 c 218.5,258.3 585.5,252.9 1045.7,279.3 360.1,20.7 2222.7,45.4 2622.7,22.4 518,-29.9 952.4,-37.6 1098.7,-240.4 v 22.4 c 0,36.6 -5.5,72 -15.6,105.3 -40.7,133.6 -157.1,234.3 -299.2,252.3 -14.9,2 -30.2,2.9 -45.7,2.9 h -4046.2 c -13.1,0 -25.9,-0.7 -38.6,-2.1 -170.1,-18.1 -304.8,-154.5 -320.3,-325.4 -1,-10.8 -1.5,-21.8 -1.5,-33"/>
      </g>
      <g transform="scale(1.76772)" id="g200">
        <path id="path202" style="fill:#e58945;fill-opacity:1;fill-rule:nonzero;stroke:none" d="m 14878.5,10736.3 h 1193.3 c 126,0 228.2,-102.1 228.2,-228.2 V 9454.87 c 0,-81.91 -43.2,-153.76 -108,-193.98 -8.7,-5.43 -17.8,-10.29 -27.3,-14.48 -191.7,142.16 -490.1,269.5 -901.6,183.4 -227.5,-47.46 -412.1,-81.06 -567,-112.18 -28.8,38.19 -45.8,85.71 -45.8,137.24 v 1053.23 c 0,126.1 102.1,228.2 228.2,228.2"/>
      </g>
      <g transform="scale(1.75306)" id="g204">
        <path id="path206" style="fill:#d17c42;fill-opacity:1;fill-rule:nonzero;stroke:none" d="m 16300,9323.78 c -28.6,-12.83 -60.4,-19.91 -93.7,-19.91 l -257.1,34.8 c -145.9,19.74 -293.5,23.1 -440.2,10.09 l -506,-44.89 c -53.7,0 -103.1,18.37 -142.3,49.17 -15.6,12.32 -29.6,26.64 -41.6,42.56 156.1,31.37 342.3,65.26 571.7,113.11 415,86.82 715.9,-41.58 909.2,-184.93"/>
      </g>
      <g transform="scale(1.76772)" id="g208">
        <path id="path210" style="fill:#f9b34a;fill-opacity:1;fill-rule:nonzero;stroke:none" d="m 14996.2,10736.3 c 117.5,-45.9 435,-47.8 725.8,-103.6 328,-63.1 484.3,-161.8 578,-209.4 v 84.8 c 0,126.1 -102.2,228.2 -228.2,228.2 h -1075.6"/>
      </g>
      <path id="path212" style="fill:#c6ab6f;fill-opacity:1;fill-rule:nonzero;stroke:none" d="m 11425.4,12610.8 h -470.8 l -301.8,1798.9 h 1074.5 l -301.9,-1798.9"/>
      <g transform="scale(1.16734)" id="g214">
        <path id="path216" style="fill:#2c7cb7;fill-opacity:1;fill-rule:nonzero;stroke:none" d="m 10237.5,15862.1 v -3541.8 c -0.8,-241.2 -196.5,-436.5 -437.94,-436.5 H 9361.9 c -241.83,0 -437.83,196.1 -437.83,437.9 v 3540.4 c 0,7.5 0.17,15.1 0.6,22.5 11.73,231.4 202.94,415.4 437.23,415.4 h 437.66 c 106.91,0 204.94,-38.3 280.94,-101.9 78.6,-65.9 133.9,-159 151.2,-264.7 3.8,-23.2 5.8,-47 5.8,-71.3"/>
      </g>
      <g transform="scale(1.16734)" id="g218">
        <path id="path220" style="fill:#3789bc;fill-opacity:1;fill-rule:nonzero;stroke:none" d="m 10231.7,15933.4 c -105.7,35.2 -576.91,171.6 -959.23,-48.4 -166.19,-95.7 -276.1,-218.4 -348.4,-333.3 v 310.4 c 0,7.5 0.17,15.1 0.6,22.5 12.93,231.4 223.41,415.4 481.27,415.4 h 393.62 c 106.91,0 204.94,-38.3 280.94,-101.9 78.6,-65.9 133.9,-159 151.2,-264.7"/>
      </g>
      <g transform="scale(1.46093)" id="g222">
        <path id="path224" style="fill:#2a682e;fill-opacity:1;fill-rule:nonzero;stroke:none" d="m 3484.04,11270.4 c 0.33,14.2 34.45,1432.7 156.89,2493.8 63.59,551.1 413.76,1203.9 696.32,1654.5 306.69,489.1 601.92,851.7 604.86,855.3 l -31.8,26 c -2.97,-3.6 -299.81,-368.2 -607.86,-859.5 -284.81,-454.1 -637.85,-1112.8 -702.32,-1671.6 -122.65,-1062.9 -156.82,-2483.3 -157.14,-2497.6 l 41.05,-0.9"/>
      </g>
      <g transform="scale(1.51393)" id="g226">
        <path id="path228" style="fill:#2a682e;fill-opacity:1;fill-rule:nonzero;stroke:none" d="m 4722.19,15978.5 c 127.89,197.9 288.54,321.5 358.82,276.1 70.28,-45.4 23.58,-242.7 -104.31,-440.6 -127.88,-197.9 -288.53,-321.5 -358.81,-276.1 -70.28,45.4 -23.58,242.7 104.3,440.6"/>
      </g>
      <g transform="scale(1.43981)" id="g230">
        <path id="path232" style="fill:#2a682e;fill-opacity:1;fill-rule:nonzero;stroke:none" d="m 5422.29,15932.7 c 0,202.8 58.41,367.3 130.47,367.3 72.05,0 130.47,-164.5 130.47,-367.3 0,-203 -58.42,-367.5 -130.47,-367.5 -72.06,0 -130.47,164.5 -130.47,367.5"/>
      </g>
      <g transform="scale(1.38352)" id="g234">
        <path id="path236" style="fill:#2a682e;fill-opacity:1;fill-rule:nonzero;stroke:none" d="m 5862.47,16069.6 c 113.29,145.3 246.94,230.4 298.52,190.2 51.58,-40.2 1.55,-190.6 -111.74,-335.9 -113.28,-145.2 -246.94,-230.3 -298.51,-190.1 -51.58,40.3 -1.56,190.6 111.73,335.8"/>
      </g>
      <g transform="scale(1.34225)" id="g238">
        <path id="path240" style="fill:#2a682e;fill-opacity:1;fill-rule:nonzero;stroke:none" d="m 5999.49,16102.4 c 137.45,131 286.58,197.6 333.09,148.7 46.52,-48.8 -27.21,-194.5 -164.67,-325.5 -137.45,-130.9 -286.58,-197.5 -333.1,-148.8 -46.51,48.9 27.22,194.6 164.68,325.6"/>
      </g>
      <g transform="scale(1.37504)" id="g242">
        <path id="path244" style="fill:#2a682e;fill-opacity:1;fill-rule:nonzero;stroke:none" d="m 5648.58,16034.3 c -91.34,161.3 -211.8,265.7 -269.07,233.3 -57.28,-32.5 -29.66,-189.5 61.67,-350.8 91.34,-161.2 211.8,-265.7 269.08,-233.2 57.27,32.4 29.65,189.4 -61.68,350.7"/>
      </g>
      <g transform="scale(1.48324)" id="g246">
        <path id="path248" style="fill:#2a682e;fill-opacity:1;fill-rule:nonzero;stroke:none" d="m 4126.56,15812.8 c -71.62,229.6 -63.59,436.3 17.94,461.8 81.53,25.4 205.7,-140.1 277.33,-369.7 71.63,-229.5 63.6,-436.3 -17.93,-461.7 -81.54,-25.5 -205.7,140 -277.34,369.6"/>
      </g>
      <g transform="scale(1.25571)" id="g250">
        <path id="path252" style="fill:#2a682e;fill-opacity:1;fill-rule:nonzero;stroke:none" d="m 6898.52,16139.1 c 107.72,107.7 229.16,160.9 271.26,118.9 42.09,-42.2 -11.11,-163.6 -118.83,-271.3 -107.71,-107.7 -229.16,-160.9 -271.25,-118.8 -42.09,42 11.1,163.5 118.82,271.2"/>
      </g>
      <g transform="scale(1.23957)" id="g254">
        <path id="path256" style="fill:#2a682e;fill-opacity:1;fill-rule:nonzero;stroke:none" d="m 6491.33,16023 c 6.7,154.1 60.99,277 121.23,274.3 60.24,-2.5 103.65,-129.7 96.94,-283.8 -6.71,-154.2 -60.99,-277.1 -121.23,-274.4 -60.24,2.6 -103.65,129.7 -96.94,283.9"/>
      </g>
      <g transform="scale(1.20755)" id="g258">
        <path id="path260" style="fill:#2a682e;fill-opacity:1;fill-rule:nonzero;stroke:none" d="m 6991.73,16024.7 c 144.79,64.2 241.81,162.2 216.69,218.7 -25.12,56.6 -162.85,50.4 -307.64,-13.9 -144.79,-64.2 -241.8,-162.2 -216.69,-218.8 25.12,-56.6 162.85,-50.4 307.64,14"/>
      </g>
      <g transform="scale(1.2154)" id="g262">
        <path id="path264" style="fill:#2a682e;fill-opacity:1;fill-rule:nonzero;stroke:none" d="m 6359.78,15987.6 c -29.67,154.5 -4.76,289.2 55.64,300.8 60.4,11.6 133.42,-104.2 163.09,-258.8 29.68,-154.6 4.77,-289.3 -55.62,-300.9 -60.4,-11.6 -133.42,104.3 -163.11,258.9"/>
      </g>
      <g transform="scale(1.18388)" id="g266">
        <path id="path268" style="fill:#2a682e;fill-opacity:1;fill-rule:nonzero;stroke:none" d="m 6943.9,16019.1 c 147.68,65.6 246.64,165.5 221.02,223.2 -25.62,57.7 -166.1,51.4 -313.79,-14.2 -147.68,-65.5 -246.63,-165.5 -221.02,-223.2 25.63,-57.7 166.11,-51.3 313.79,14.2"/>
      </g>
      <g transform="scale(1.18719)" id="g270">
        <path id="path272" style="fill:#2a682e;fill-opacity:1;fill-rule:nonzero;stroke:none" d="m 6310.28,15980.2 c -30.39,158.2 -4.89,296 56.95,307.9 61.83,11.9 136.59,-106.7 166.96,-265 30.39,-158.2 4.89,-296.1 -56.95,-308 -61.83,-11.8 -136.59,106.8 -166.96,265.1"/>
      </g>
      <g transform="scale(1.15631)" id="g274">
        <path id="path276" style="fill:#2a682e;fill-opacity:1;fill-rule:nonzero;stroke:none" d="m 6923.61,16012.4 c 151.2,67.1 252.51,169.4 226.28,228.5 -26.23,59.1 -170.06,52.5 -321.27,-14.6 -151.2,-67.1 -252.51,-169.4 -226.28,-228.5 26.22,-59 170.06,-52.5 321.27,14.6"/>
      </g>
      <g transform="scale(1.32447)" id="g278">
        <path id="path280" style="fill:#2a682e;fill-opacity:1;fill-rule:nonzero;stroke:none" d="m 5509.47,15903.8 c -122.37,151.3 -178.01,309.3 -124.24,352.8 53.75,43.4 196.53,-44 318.92,-195.4 122.37,-151.4 178,-309.3 124.24,-352.8 -53.76,-43.4 -196.54,44.1 -318.92,195.4"/>
      </g>
      <g transform="scale(1.29589)" id="g282">
        <path id="path284" style="fill:#2a682e;fill-opacity:1;fill-rule:nonzero;stroke:none" d="m 6277.64,15922.6 c 153.3,123.9 241.89,268.5 197.87,323 -44.01,54.4 -203.96,-1.9 -357.26,-125.9 -153.29,-123.9 -241.88,-268.5 -197.88,-322.9 44.03,-54.5 203.97,1.8 357.27,125.8"/>
      </g>
      <g transform="scale(1.28518)" id="g286">
        <path id="path288" style="fill:#2a682e;fill-opacity:1;fill-rule:nonzero;stroke:none" d="m 5593.11,15891.7 c -126.12,156 -183.45,318.7 -128.05,363.5 55.4,44.8 202.55,-45.4 328.67,-201.4 126.11,-155.9 183.44,-318.7 128.04,-363.5 -55.4,-44.8 -202.54,45.3 -328.66,201.4"/>
      </g>
      <g transform="scale(1.40917)" id="g290">
        <path id="path292" style="fill:#2a682e;fill-opacity:1;fill-rule:nonzero;stroke:none" d="m 3820.85,15787.2 c -75.39,241.6 -66.94,459.2 18.89,486 85.81,26.8 216.5,-147.4 291.89,-389 75.4,-241.7 66.95,-459.3 -18.87,-486.1 -85.83,-26.7 -216.51,147.4 -291.91,389.1"/>
      </g>
      <g transform="scale(1.41803)" id="g294">
        <path id="path296" style="fill:#2a682e;fill-opacity:1;fill-rule:nonzero;stroke:none" d="m 4908.67,15872.8 c 225.4,111.7 375.96,267.1 336.29,347.2 -39.67,80 -254.55,54.3 -479.95,-57.4 -225.4,-111.7 -375.96,-267.1 -336.29,-347.1 39.67,-80.1 254.56,-54.4 479.95,57.3"/>
      </g>
      <g transform="scale(1.34989)" id="g298">
        <path id="path300" style="fill:#2a682e;fill-opacity:1;fill-rule:nonzero;stroke:none" d="m 4727.16,15851.2 c 236.79,117.4 394.94,280.6 353.26,364.7 -41.67,84.1 -267.39,57.1 -504.16,-60.2 -236.79,-117.4 -394.95,-280.6 -353.27,-364.7 41.67,-84.1 267.4,-57.1 504.17,60.2"/>
      </g>
      <g transform="scale(1.33763)" id="g302">
        <path id="path304" style="fill:#2a682e;fill-opacity:1;fill-rule:nonzero;stroke:none" d="m 3638.15,15749.1 c -118.43,238.9 -145.63,466.7 -60.77,508.8 84.85,42.1 249.65,-117.5 368.07,-356.5 118.42,-238.9 145.63,-466.7 60.77,-508.8 -84.86,-42 -249.65,117.6 -368.07,356.5"/>
      </g>
      <g transform="scale(1.20816)" id="g306">
        <path id="path308" style="fill:#2a682e;fill-opacity:1;fill-rule:nonzero;stroke:none" d="m 3586.75,15981 c -32.94,158 -14.15,295.7 41.97,307.3 56.12,11.7 128.32,-106.9 161.27,-264.9 32.95,-158 14.16,-295.6 -41.96,-307.3 -56.13,-11.7 -128.33,106.9 -161.28,264.9"/>
      </g>
      <g transform="scale(1.2526)" id="g310">
        <path id="path312" style="fill:#2a682e;fill-opacity:1;fill-rule:nonzero;stroke:none" d="m 5249.63,16029.2 c 25.46,153.6 90.32,270.8 144.87,261.7 54.56,-9 78.14,-140.8 52.67,-294.4 -25.45,-153.6 -90.32,-270.8 -144.87,-261.8 -54.54,9 -78.12,140.9 -52.67,294.5"/>
      </g>
      <g transform="scale(1.21169)" id="g314">
        <path id="path316" style="fill:#2a682e;fill-opacity:1;fill-rule:nonzero;stroke:none" d="m 5551.13,16124.5 c 77.42,109.2 171.63,175.5 210.43,148 38.8,-27.5 7.49,-138.3 -69.93,-247.6 -77.42,-109.2 -171.64,-175.4 -210.44,-147.9 -38.79,27.4 -7.48,138.3 69.94,247.5"/>
      </g>
      <g transform="scale(1.18438)" id="g318">
        <path id="path320" style="fill:#2a682e;fill-opacity:1;fill-rule:nonzero;stroke:none" d="m 5674.88,16120.4 c 79.21,111.8 175.6,179.6 215.29,151.4 39.68,-28.1 7.66,-141.5 -71.55,-253.3 -79.2,-111.7 -175.59,-179.5 -215.29,-151.4 -39.69,28.1 -7.65,141.5 71.55,253.3"/>
      </g>
      <g transform="scale(1.20466)" id="g322">
        <path id="path324" style="fill:#2a682e;fill-opacity:1;fill-rule:nonzero;stroke:none" d="m 5421.18,16123.4 c -77.88,109.9 -172.64,176.6 -211.66,149 -39.03,-27.8 -7.53,-139.3 70.34,-249.2 77.86,-109.8 172.63,-176.4 211.66,-148.8 39.03,27.6 7.53,139.1 -70.34,249"/>
      </g>
      <g transform="scale(1.17433)" id="g326">
        <path id="path328" style="fill:#2a682e;fill-opacity:1;fill-rule:nonzero;stroke:none" d="m 5539.23,16119 c -79.89,112.6 -177.1,181 -217.13,152.6 -40.03,-28.3 -7.73,-142.7 72.16,-255.4 79.88,-112.8 177.08,-181.1 217.12,-152.7 40.04,28.4 7.73,142.7 -72.15,255.5"/>
      </g>
      <g transform="scale(1.15817)" id="g330">
        <path id="path332" style="fill:#2a682e;fill-opacity:1;fill-rule:nonzero;stroke:none" d="m 5801.89,16116.3 c 80.99,114.4 179.56,183.7 220.16,154.9 40.59,-28.7 7.83,-144.8 -73.17,-259 -81,-114.3 -179.56,-183.6 -220.15,-154.9 -40.59,28.8 -7.83,144.7 73.16,259"/>
      </g>
      <g transform="scale(1.14812)" id="g334">
        <path id="path336" style="fill:#2a682e;fill-opacity:1;fill-rule:nonzero;stroke:none" d="m 5664.22,16114.7 c -81.71,115.4 -181.14,185.3 -222.07,156.3 -40.95,-29.1 -7.9,-146.1 73.79,-261.4 81.71,-115.2 181.14,-185.2 222.09,-156.2 40.94,29.1 7.9,146 -73.81,261.3"/>
      </g>
      <g transform="scale(1.15133)" id="g338">
        <path id="path340" style="fill:#2a682e;fill-opacity:1;fill-rule:nonzero;stroke:none" d="m 4819.08,16042.2 c -50.86,102.6 -50.18,206.6 1.5,232.2 51.69,25.6 134.82,-36.8 185.67,-139.4 50.85,-102.7 50.18,-206.6 -1.5,-232.2 -51.7,-25.6 -134.82,36.7 -185.67,139.4"/>
      </g>
      <g transform="scale(1.16589)" id="g342">
        <path id="path344" style="fill:#2a682e;fill-opacity:1;fill-rule:nonzero;stroke:none" d="m 3661.84,16027.7 c -126.3,80.7 -205.43,182.6 -176.74,227.4 28.68,44.9 154.33,15.7 280.63,-65.1 126.3,-80.7 205.44,-182.6 176.75,-227.4 -28.69,-44.9 -154.34,-15.7 -280.64,65.1"/>
      </g>
      <g transform="scale(1.12958)" id="g346">
        <path id="path348" style="fill:#2a682e;fill-opacity:1;fill-rule:nonzero;stroke:none" d="m 3933.08,16018.9 c -130.36,83.4 -212.04,188.5 -182.43,234.8 29.61,46.3 159.29,16.3 289.65,-67.1 130.38,-83.4 212.05,-188.5 182.44,-234.8 -29.61,-46.3 -159.29,-16.3 -289.66,67.1"/>
      </g>
      <g transform="scale(1.16429)" id="g350">
        <path id="path352" style="fill:#2a682e;fill-opacity:1;fill-rule:nonzero;stroke:none" d="m 4238.37,15994.9 c 95.47,115.9 139.53,237.3 98.38,271.3 -41.14,33.8 -151.9,-32.6 -247.38,-148.5 -95.48,-115.8 -139.53,-237.2 -98.38,-271.1 41.14,-33.9 151.9,32.5 247.38,148.3"/>
      </g>
      <g transform="scale(1.1228)" id="g354">
        <path id="path356" style="fill:#2a682e;fill-opacity:1;fill-rule:nonzero;stroke:none" d="m 4996.14,16083.2 c -100.52,64.3 -163.5,145.4 -140.67,181.1 22.84,35.7 122.83,12.5 223.35,-51.8 100.52,-64.3 163.5,-145.3 140.68,-181 -22.84,-35.7 -122.84,-12.5 -223.36,51.7"/>
      </g>
      <g transform="scale(1.09921)" id="g358">
        <path id="path360" style="fill:#2a682e;fill-opacity:1;fill-rule:nonzero;stroke:none" d="m 5162.12,16078.6 c -102.68,65.7 -167.01,148.4 -143.69,184.9 23.33,36.5 125.47,12.8 228.15,-52.8 102.68,-65.7 167.01,-148.5 143.69,-185 -23.33,-36.5 -125.46,-12.8 -228.15,52.9"/>
      </g>
      <g transform="scale(1.12366)" id="g362">
        <path id="path364" style="fill:#2a682e;fill-opacity:1;fill-rule:nonzero;stroke:none" d="m 5431.36,16057.8 c 75.83,92 110.81,188.4 78.13,215.3 -32.68,26.9 -120.64,-25.8 -196.46,-117.8 -75.84,-92 -110.82,-188.5 -78.14,-215.4 32.68,-26.9 120.64,25.8 196.47,117.9"/>
      </g>
      <g transform="scale(1.09148)" id="g366">
        <path id="path368" style="fill:#2a682e;fill-opacity:1;fill-rule:nonzero;stroke:none" d="m 5669.14,16050.6 c 78.07,94.7 114.08,194 80.44,221.7 -33.65,27.7 -124.19,-26.5 -202.26,-121.3 -78.06,-94.7 -114.08,-194 -80.43,-221.7 33.64,-27.7 124.2,26.6 202.25,121.3"/>
      </g>
      <g transform="scale(1.27953)" id="g370">
        <path id="path372" style="fill:#2a682e;fill-opacity:1;fill-rule:nonzero;stroke:none" d="m 4675.75,15826.5 c 249.8,123.8 416.65,296.1 372.69,384.8 -43.97,88.7 -282.11,60.3 -531.91,-63.5 -249.79,-123.8 -416.65,-296.1 -372.69,-384.8 43.97,-88.8 282.11,-60.3 531.91,63.5"/>
      </g>
      <g transform="scale(1.17585)" id="g374">
        <path id="path376" style="fill:#2a682e;fill-opacity:1;fill-rule:nonzero;stroke:none" d="m 4502.63,13915.3 47.91,17.6 c -6.55,17.9 -654.91,1792.1 -695.27,2367.1 l -50.89,-3.6 c 40.84,-582.1 671.42,-2307.8 698.25,-2381.1"/>
      </g>
      <g transform="scale(1.23639)" id="g378">
        <path id="path380" style="fill:#2a682e;fill-opacity:1;fill-rule:nonzero;stroke:none" d="m 5570.98,13126.3 c 1.62,6.6 165.16,664.3 438.59,1376.5 360.46,939 746.92,1545.8 1117.63,1755 l -23.86,42.2 c -213.34,-120.4 -429.2,-362.3 -641.57,-719.1 -168.87,-283.7 -336.3,-640.7 -497.68,-1061.2 -274.46,-714.9 -438.6,-1375.2 -440.23,-1381.7 l 47.12,-11.7"/>
      </g>
      <g transform="scale(1.13286)" id="g382">
        <path id="path384" style="fill:#2a682e;fill-opacity:1;fill-rule:nonzero;stroke:none" d="m 5294.49,14461.3 35.3,0.6 c -1.07,59.2 -29.29,1454.5 -290.46,1838.1 l -29.18,-19.9 c 255.27,-374.9 284.07,-1804.4 284.34,-1818.8"/>
      </g>
      <g transform="scale(1.13277)" id="g386">
        <path id="path388" style="fill:#2a682e;fill-opacity:1;fill-rule:nonzero;stroke:none" d="m 7339.92,16038.1 c 51.69,104.2 51,209.9 -1.54,235.9 -52.53,26 -137.01,-37.4 -188.7,-141.7 -51.69,-104.3 -51,-210 1.53,-236 52.54,-26 137.02,37.4 188.71,141.8"/>
      </g>
      <g transform="scale(1.10059)" id="g390">
        <path id="path392" style="fill:#2a682e;fill-opacity:1;fill-rule:nonzero;stroke:none" d="m 7489.51,16078.8 c 102.55,65.6 166.8,148.3 143.51,184.8 -23.3,36.4 -125.31,12.8 -227.86,-52.8 -102.55,-65.6 -166.8,-148.3 -143.51,-184.7 23.29,-36.5 125.31,-12.8 227.86,52.7"/>
      </g>
      <g transform="scale(1.07825)" id="g394">
        <path id="path396" style="fill:#2a682e;fill-opacity:1;fill-rule:nonzero;stroke:none" d="m 7594.29,16074.3 c 104.68,66.9 170.26,151.3 146.48,188.5 -23.77,37.2 -127.9,13.1 -232.57,-53.9 -104.67,-66.9 -170.25,-151.3 -146.48,-188.5 23.78,-37.2 127.9,-13 232.57,53.9"/>
      </g>
      <g transform="scale(1.10725)" id="g398">
        <path id="path400" style="fill:#2a682e;fill-opacity:1;fill-rule:nonzero;stroke:none" d="m 7020.25,16054.2 c -76.96,93.3 -112.45,191.2 -79.29,218.4 33.16,27.4 122.42,-26.2 199.37,-119.5 76.96,-93.4 112.46,-191.2 79.29,-218.6 -33.16,-27.3 -122.42,26.3 -199.37,119.7"/>
      </g>
      <g transform="scale(1.08321)" id="g402">
        <path id="path404" style="fill:#2a682e;fill-opacity:1;fill-rule:nonzero;stroke:none" d="m 7109.81,16048.6 c -78.66,95.5 -114.94,195.5 -81.05,223.4 33.89,28 125.14,-26.7 203.8,-122.2 78.66,-95.5 114.94,-195.4 81.04,-223.4 -33.89,-27.9 -125.13,26.8 -203.79,122.2"/>
      </g>
      <g transform="scale(1.11431)" id="g406">
        <path id="path408" style="fill:#2a682e;fill-opacity:1;fill-rule:nonzero;stroke:none" d="m 7058.11,14430.7 c 0.27,14.6 29.56,1467.9 289.09,1849.1 l -29.68,20.2 c -265.52,-390 -294.2,-1808.5 -295.3,-1868.7 l 35.89,-0.6"/>
      </g>
      <g transform="scale(1.24217)" id="g410">
        <path id="path412" style="fill:#2a682e;fill-opacity:1;fill-rule:nonzero;stroke:none" d="m 5290.27,13110.9 c 0.5,27.5 50.4,2763.2 118.91,3183.9 l -31.79,5.2 c -68.86,-423.1 -118.82,-3160.9 -119.32,-3188.5 l 32.2,-0.6"/>
      </g>
      <g transform="scale(1.4024)" id="g414">
        <path id="path416" style="fill:#2a682e;fill-opacity:1;fill-rule:nonzero;stroke:none" d="m 4692.14,11441.3 c 2.85,9.9 287.74,996.7 554.62,2082.8 358.78,1459.9 515.84,2393.9 466.87,2775.9 l -42.44,-5.4 c 115.4,-900 -1008.79,-4802.1 -1020.15,-4841.4 l 41.1,-11.9"/>
      </g>
      <g transform="scale(1.0271)" id="g418">
        <path id="path420" style="fill:#e58945;fill-opacity:1;fill-rule:nonzero;stroke:none" d="M 8495.06,16300 8047.4,14258.7 7613.45,12280 H 5356.61 l -77.98,355.5 -803.54,3664.5 h 4019.97"/>
      </g>
      <path id="path422" style="fill:#d17c42;fill-opacity:1;fill-rule:nonzero;stroke:none" d="m 8265.47,14645.1 -445.71,-2032.3 h -2318 l -80.09,365.1 c 731.52,76.9 1279.83,197.5 1941.73,715.2 515.76,403.4 678.16,748.6 902.07,952"/>
      <g transform="scale(1.01137)" id="g424">
        <path id="path426" style="fill:#f9b34a;fill-opacity:1;fill-rule:nonzero;stroke:none" d="m 5142.91,15972.2 c 0,0 250.87,290.8 466.23,309.3 215.35,18.5 16.83,-212.6 -76.67,-303.5 -93.49,-90.9 -405.82,-543.3 -469.01,-381.5 -63.21,161.9 -2.13,291.5 79.45,375.7"/>
      </g>
    </g>
  </g>
</svg>